<svg width="34" height="34" viewBox="0 0 34 34" fill="none" xmlns="http://www.w3.org/2000/svg">
<rect x="1" y="1" width="32" height="32" fill="#282828"/>
<rect x="1" y="1" width="32" height="32" stroke="#282828" stroke-width="1.45455"/>
<path d="M25.4513 10.906C26.1023 10.255 26.1023 9.19957 25.4513 8.54858C24.8004 7.89759 23.7449 7.89759 23.0939 8.54858L24.2726 9.72729L25.4513 10.906ZM7.60306 24.7299C7.60306 25.6505 8.34939 26.3969 9.27002 26.3969H24.2726C25.1933 26.3969 25.9396 25.6505 25.9396 24.7299C25.9396 23.8093 25.1933 23.063 24.2726 23.063H10.937V9.7273C10.937 8.80667 10.1907 8.06035 9.27002 8.06035C8.34939 8.06035 7.60306 8.80667 7.60306 9.7273V24.7299ZM24.2726 9.72729L23.0939 8.54858L8.0913 23.5512L9.27002 24.7299L10.4487 25.9086L25.4513 10.906L24.2726 9.72729Z" fill="#FBF1C7"/>
</svg>
