<svg width="720" height="256" viewBox="0 0 720 256" fill="none" xmlns="http://www.w3.org/2000/svg">
<path d="M49.3013 63.7617C53.9395 63.7617 57.1468 65.2913 58.9232 68.3506C60.7982 71.4098 61.7357 75.9494 61.7357 81.9692C61.7357 86.114 61.4396 90.6535 60.8475 95.5878C60.3541 100.522 59.5646 104.864 58.4791 108.614H57.5909C59.8607 103.877 62.8212 100.029 66.4726 97.0681C70.2226 94.1075 74.0714 92.6272 78.0188 92.6272C82.0649 92.6272 85.6176 93.8608 88.6768 96.3279C91.7361 98.795 94.3512 102.397 96.5223 107.134C98.5947 111.674 100.124 116.953 101.111 122.973C102.098 128.894 102.591 135.309 102.591 142.217C102.591 151.394 101.802 158.697 100.223 164.125C98.644 169.553 96.473 173.5 93.7098 175.967C90.9466 178.336 87.7393 179.52 84.0879 179.52C75.2063 179.52 70.7654 173.352 70.7654 161.016C70.7654 156.575 71.0121 152.036 71.5056 147.398C72.0977 142.759 72.3937 138.516 72.3937 134.667C72.3937 130.621 72.0483 127.611 71.3575 125.637C70.7654 123.565 69.8279 122.529 68.545 122.529C66.8673 122.529 65.4857 123.96 64.4002 126.822C63.3147 129.684 62.7719 133.631 62.7719 138.664C62.7719 142.019 62.9693 145.424 63.364 148.878C63.8574 152.233 64.1041 156.279 64.1041 161.016C64.1041 168.615 62.6732 174.092 59.8113 177.447C57.0481 180.704 53.5448 182.332 49.3013 182.332C46.3408 182.332 43.7256 181.839 41.4558 180.852C39.1861 179.865 37.2617 177.891 35.6827 174.931C34.2025 171.872 32.9689 167.381 31.982 161.46C31.3899 157.908 30.8472 153.763 30.3537 149.026C29.959 144.289 29.5642 139.355 29.1695 134.223C28.8734 128.993 28.6267 123.96 28.4294 119.124C28.232 114.19 28.1333 109.848 28.1333 106.098C28.1333 91.3936 29.9096 80.6863 33.4623 73.9757C37.1137 67.1664 42.3933 63.7617 49.3013 63.7617Z" fill="white"/>
<path d="M158.097 182.48C155.334 182.48 152.818 181.197 150.548 178.632C148.278 175.967 146.897 171.773 146.403 166.049L148.92 166.789C145.367 177.546 138.607 182.924 128.64 182.924C123.706 182.924 119.61 181.74 116.353 179.372C113.196 176.905 110.827 173.697 109.248 169.75C107.768 165.802 107.028 161.411 107.028 156.575C107.028 148.384 109.1 141.921 113.245 137.184C117.488 132.348 123.064 129.93 129.972 129.93C134.117 129.93 137.768 130.868 140.926 132.743C144.084 134.618 146.749 137.233 148.92 140.588L144.183 140.292C144.183 131.805 143.097 125.786 140.926 122.233C138.854 118.581 135.794 116.756 131.748 116.756C130.564 116.756 129.281 116.953 127.9 117.348C126.617 117.743 125.284 118.137 123.903 118.532C122.521 118.828 121.09 118.976 119.61 118.976C116.255 118.976 113.689 117.94 111.913 115.868C110.136 113.697 109.248 110.933 109.248 107.578C109.248 103.433 110.482 99.9299 112.949 97.0681C115.416 94.2062 118.673 92.0351 122.719 90.5548C126.863 89.0745 131.354 88.3344 136.189 88.3344C143.295 88.3344 149.314 90.2094 154.249 93.9595C159.282 97.7095 163.18 103.187 165.943 110.391C168.114 115.818 169.644 121.937 170.532 128.746C171.519 135.555 172.012 142.809 172.012 150.506C172.012 158.894 171.519 165.408 170.532 170.046C169.644 174.684 168.163 177.941 166.091 179.816C164.019 181.592 161.354 182.48 158.097 182.48ZM138.706 163.089C139.594 163.089 140.482 162.743 141.37 162.052C142.258 161.362 142.999 160.276 143.591 158.796C144.183 157.316 144.479 155.49 144.479 153.319C144.479 151.246 144.281 149.569 143.887 148.286C143.492 147.003 142.949 146.065 142.258 145.473C141.568 144.782 140.827 144.437 140.038 144.437C138.459 144.437 137.225 145.375 136.337 147.25C135.449 149.026 135.005 151.345 135.005 154.207C135.005 156.773 135.35 158.894 136.041 160.572C136.732 162.25 137.62 163.089 138.706 163.089Z" fill="white"/>
<path d="M191.959 89.2226C195.314 89.2226 198.077 90.9002 200.248 94.2555C202.419 97.5121 203.998 102.693 204.985 109.798L201.877 111.427C203.258 104.519 205.775 99.2391 209.426 95.5878C213.078 91.9364 217.37 90.1107 222.305 90.1107C227.338 90.1107 231.778 91.6897 235.627 94.8476C239.476 98.0056 242.486 102.792 244.657 109.206C246.927 115.522 248.062 123.466 248.062 133.039C248.062 148.533 245.792 159.98 241.252 167.381C236.713 174.684 230.545 178.336 222.749 178.336C217.913 178.336 214.163 176.855 211.499 173.895C208.834 170.934 206.959 167.332 205.873 163.089L207.65 162.2C208.439 167.727 209.081 173.204 209.574 178.632C210.166 183.961 210.462 188.648 210.462 192.694C210.462 197.727 209.327 201.971 207.058 205.425C204.887 208.977 201.433 210.754 196.696 210.754C192.156 210.754 188.752 209.076 186.482 205.721C184.212 202.464 182.584 197.974 181.597 192.25C181.005 188.204 180.413 183.072 179.821 176.855C179.228 170.539 178.735 163.73 178.34 156.427C178.044 149.125 177.896 141.921 177.896 134.815C177.896 127.809 178.143 121.246 178.636 115.127C179.228 108.91 179.919 103.877 180.709 100.029C181.696 96.3773 183.077 93.6634 184.853 91.8871C186.729 90.1107 189.097 89.2226 191.959 89.2226ZM212.979 114.979C210.61 114.979 208.735 116.805 207.354 120.457C205.972 124.108 205.281 128.845 205.281 134.667C205.281 140.687 205.972 145.177 207.354 148.138C208.735 151.098 210.512 152.579 212.683 152.579C215.446 152.579 217.37 150.901 218.456 147.546C219.64 144.19 220.232 139.848 220.232 134.519C220.232 127.809 219.492 122.874 218.012 119.716C216.63 116.558 214.953 114.979 212.979 114.979Z" fill="white"/>
<path d="M267.274 89.2226C270.629 89.2226 273.392 90.9002 275.564 94.2555C277.735 97.5121 279.314 102.693 280.3 109.798L277.192 111.427C278.573 104.519 281.09 99.2391 284.741 95.5878C288.393 91.9364 292.685 90.1107 297.62 90.1107C302.653 90.1107 307.094 91.6897 310.942 94.8476C314.791 98.0056 317.801 102.792 319.972 109.206C322.242 115.522 323.377 123.466 323.377 133.039C323.377 148.533 321.107 159.98 316.567 167.381C312.028 174.684 305.86 178.336 298.064 178.336C293.228 178.336 289.478 176.855 286.814 173.895C284.149 170.934 282.274 167.332 281.189 163.089L282.965 162.2C283.754 167.727 284.396 173.204 284.889 178.632C285.481 183.961 285.777 188.648 285.777 192.694C285.777 197.727 284.643 201.971 282.373 205.425C280.202 208.977 276.748 210.754 272.011 210.754C267.471 210.754 264.067 209.076 261.797 205.721C259.527 202.464 257.899 197.974 256.912 192.25C256.32 188.204 255.728 183.072 255.136 176.855C254.544 170.539 254.05 163.73 253.655 156.427C253.359 149.125 253.211 141.921 253.211 134.815C253.211 127.809 253.458 121.246 253.951 115.127C254.544 108.91 255.234 103.877 256.024 100.029C257.011 96.3773 258.392 93.6634 260.169 91.8871C262.044 90.1107 264.412 89.2226 267.274 89.2226ZM288.294 114.979C285.925 114.979 284.05 116.805 282.669 120.457C281.287 124.108 280.596 128.845 280.596 134.667C280.596 140.687 281.287 145.177 282.669 148.138C284.05 151.098 285.827 152.579 287.998 152.579C290.761 152.579 292.685 150.901 293.771 147.546C294.955 144.19 295.547 139.848 295.547 134.519C295.547 127.809 294.807 122.874 293.327 119.716C291.945 116.558 290.268 114.979 288.294 114.979Z" fill="white"/>
<path d="M340.551 210.458C333.15 210.458 329.449 206.658 329.449 199.059C329.449 195.309 330.485 191.066 332.558 186.329C334.729 181.691 337.591 177.053 341.143 172.414C344.795 167.677 348.89 163.434 353.43 159.684L353.282 162.052C344.203 151.592 337.295 141.674 332.558 132.299C327.92 122.924 325.6 113.499 325.6 104.025C325.6 99.9793 326.637 96.8213 328.709 94.5516C330.781 92.2818 333.643 91.1469 337.295 91.1469C343.808 91.1469 349.236 95.3411 353.578 103.729C358.019 112.019 361.226 123.664 363.2 138.664H363.792C365.765 121.591 368.43 109.157 371.785 101.361C375.141 93.466 379.137 89.5186 383.776 89.5186C387.23 89.5186 389.795 90.8509 391.473 93.5154C393.249 96.1799 394.138 99.9793 394.138 104.914C394.138 108.17 393.792 112.118 393.101 116.756C392.411 121.295 391.325 126.328 389.845 131.855C388.463 137.282 386.736 142.907 384.664 148.73C382.591 154.552 380.223 160.227 377.558 165.753C369.861 181.543 363.101 192.941 357.279 199.948C351.555 206.954 345.979 210.458 340.551 210.458Z" fill="white"/>
<path d="M422.914 181C418.374 181 414.674 179.816 411.812 177.447C408.95 175.079 407.519 171.329 407.519 166.197V75.9H419.953V165.161C419.953 166.74 420.348 167.974 421.138 168.862C422.026 169.651 423.259 170.046 424.838 170.046H431.648V181H422.914Z" fill="white"/>
<path d="M462.23 182.776C454.138 182.776 447.674 180.901 442.839 177.151C438.102 173.401 435.733 168.171 435.733 161.46C435.733 154.75 437.707 149.47 441.655 145.621C445.602 141.773 451.869 139.059 460.454 137.48L488.283 132.299C488.283 125.687 486.705 120.753 483.547 117.496C480.487 114.239 475.849 112.611 469.632 112.611C464.204 112.611 459.911 113.845 456.753 116.312C453.596 118.68 451.424 122.134 450.24 126.674L437.066 125.637C438.546 118.236 442.099 112.266 447.724 107.726C453.448 103.088 460.75 100.769 469.632 100.769C479.698 100.769 487.395 103.631 492.724 109.354C498.053 114.979 500.718 122.776 500.718 132.743V165.161C500.718 166.937 501.014 168.22 501.606 169.01C502.297 169.701 503.382 170.046 504.863 170.046H507.971V181C507.576 181.099 506.935 181.148 506.047 181.148C505.159 181.247 504.221 181.296 503.234 181.296C499.682 181.296 496.77 180.753 494.501 179.668C492.33 178.484 490.751 176.707 489.764 174.339C488.777 171.872 488.283 168.664 488.283 164.717L489.764 165.013C489.073 168.368 487.395 171.428 484.731 174.191C482.066 176.855 478.76 178.977 474.813 180.556C470.865 182.036 466.671 182.776 462.23 182.776ZM463.415 171.822C468.645 171.822 473.086 170.835 476.737 168.862C480.487 166.789 483.349 164.026 485.323 160.572C487.297 157.019 488.283 153.072 488.283 148.73V143.105L462.823 147.842C457.494 148.829 453.793 150.358 451.72 152.431C449.747 154.404 448.76 157.019 448.76 160.276C448.76 163.927 450.043 166.789 452.609 168.862C455.273 170.835 458.875 171.822 463.415 171.822Z" fill="white"/>
<path d="M516.094 181V102.545H527.492L527.936 122.529L526.456 121.197C527.443 116.558 529.17 112.759 531.637 109.798C534.104 106.739 537.065 104.469 540.519 102.989C544.072 101.509 547.871 100.769 551.917 100.769C557.937 100.769 562.871 102.101 566.72 104.766C570.667 107.43 573.579 111.032 575.454 115.572C577.427 120.012 578.414 124.996 578.414 130.522V181H565.98V134.075C565.98 129.24 565.388 125.193 564.203 121.937C563.118 118.581 561.342 116.065 558.874 114.387C556.407 112.611 553.2 111.723 549.253 111.723C543.233 111.723 538.249 113.647 534.302 117.496C530.453 121.246 528.529 126.772 528.529 134.075V181H516.094Z" fill="white"/>
<path d="M622.28 182.776C615.471 182.776 609.55 181.099 604.517 177.743C599.583 174.388 595.783 169.651 593.119 163.533C590.454 157.414 589.122 150.161 589.122 141.773C589.122 133.384 590.454 126.131 593.119 120.012C595.783 113.894 599.583 109.157 604.517 105.802C609.55 102.446 615.471 100.769 622.28 100.769C627.51 100.769 632.297 101.904 636.639 104.173C640.981 106.344 644.238 109.453 646.409 113.499V75.9H658.843V181H647.593L647.149 169.158C644.978 173.401 641.672 176.757 637.231 179.224C632.79 181.592 627.807 182.776 622.28 182.776ZM624.797 170.934C629.435 170.934 633.333 169.75 636.491 167.381C639.747 165.013 642.215 161.658 643.892 157.316C645.57 152.875 646.409 147.694 646.409 141.773C646.409 135.654 645.57 130.424 643.892 126.082C642.215 121.739 639.747 118.433 636.491 116.164C633.333 113.795 629.435 112.611 624.797 112.611C617.889 112.611 612.362 115.226 608.217 120.457C604.171 125.588 602.148 132.693 602.148 141.773C602.148 150.753 604.171 157.858 608.217 163.089C612.362 168.319 617.889 170.934 624.797 170.934Z" fill="white"/>
<path d="M671.237 181V164.273H687.964V181H671.237Z" fill="white"/>
</svg>
