<?xml version="1.0" encoding="UTF-8"?>
<?xml-stylesheet type="text/css" href="/styles.css"?>
<svg width="63" height="140" viewBox="0 0 63 140" fill="none" xmlns="http://www.w3.org/2000/svg">
    <g id="logo">
        <rect id="logo_bg" width="63" height="140" fill="#282828"/>
        <g id="logo_primary">
            <path d="M11.0553 37.5356L8.40411 9.07458H13.1996L14.6421 28.1005C14.6681 28.4644 14.6941 28.9843 14.7201 29.6601C14.7461 30.3098 14.7721 30.9986 14.7981 31.7264C14.8501 32.4282 14.8761 33.065 14.8761 33.6368C14.928 33.065 14.98 32.4282 15.032 31.7264C15.11 30.9986 15.188 30.3098 15.2659 29.6601C15.3439 28.9843 15.3959 28.4644 15.4219 28.1005L17.5272 9.07458H21.9718L23.9992 28.1005C24.0511 28.4644 24.1031 28.9843 24.1551 29.6601C24.2331 30.3098 24.3111 30.9986 24.389 31.7264C24.493 32.4282 24.571 33.065 24.623 33.6368C24.649 33.065 24.675 32.4282 24.7009 31.7264C24.7269 30.9986 24.7529 30.3098 24.7789 29.6601C24.8049 28.9843 24.8309 28.4644 24.8569 28.1005L26.1825 9.07458H31.0169L28.1708 37.5356H22.0888L20.1784 18.6266C20.1264 18.1847 20.0744 17.6129 20.0224 16.9111C19.9704 16.1833 19.9185 15.4296 19.8665 14.6498C19.8145 13.8701 19.7625 13.1813 19.7105 12.5835C19.6845 13.1813 19.6455 13.8701 19.5936 14.6498C19.5416 15.4296 19.4896 16.1833 19.4376 16.9111C19.3856 17.6129 19.3336 18.1847 19.2817 18.6266L17.1763 37.5356H11.0553Z" fill="#FBF1C7"/>
            <path d="M32.3663 37.5356L39.3451 9.07458H46.7527L53.8095 37.5356H47.8444L46.4798 31.1026H39.6959L38.3314 37.5356H32.3663ZM40.6706 26.4241H45.4661L44.1016 19.5623C43.9196 18.5746 43.7247 17.5999 43.5167 16.6382C43.3348 15.6505 43.1918 14.8837 43.0879 14.3379C42.9839 14.8837 42.841 15.6375 42.659 16.5992C42.5031 17.5609 42.3211 18.5356 42.1132 19.5233L40.6706 26.4241Z" fill="#FBF1C7"/>
            <path d="M11.7181 68.5356V40.0746H17.5662V63.0773H29.0676V68.5356H11.7181Z" fill="#FBF1C7"/>
            <path d="M33.9258 68.5356V40.0746H39.7739V51.1081H42.542L47.2206 40.0746H53.5755L47.7274 53.6813L53.8095 68.5356H47.3765L42.542 56.4884H39.7739V68.5356H33.9258Z" fill="#FBF1C7"/>
            <path d="M11.1332 99.5356V94.4672H16.7865V76.143H11.1332V71.0746H28.2878V76.143H22.6346V94.4672H28.2878V99.5356H11.1332Z" fill="#FBF1C7"/>
            <path d="M33.7308 99.5356V71.0746H40.5537L47.9223 93.1026C47.8444 92.1409 47.7534 91.0362 47.6494 89.7886C47.5455 88.515 47.4545 87.2544 47.3765 86.0068C47.3245 84.7332 47.2985 83.6546 47.2985 82.7709V71.0746H52.4449V99.5356H45.6221L38.3314 77.5075C38.4094 78.3393 38.4873 79.327 38.5653 80.4706C38.6433 81.6142 38.7083 82.7709 38.7602 83.9405C38.8382 85.1101 38.8772 86.1498 38.8772 87.0595V99.5356H33.7308Z" fill="#FBF1C7"/>
            <path d="M19.8665 130.925C17.9691 130.925 16.3056 130.575 14.8761 129.873C13.4465 129.145 12.3289 128.144 11.5231 126.871C10.7434 125.571 10.3535 124.064 10.3535 122.348V110.262C10.3535 108.521 10.7434 107.013 11.5231 105.739C12.3289 104.466 13.4465 103.478 14.8761 102.776C16.3056 102.049 17.9691 101.685 19.8665 101.685C21.7899 101.685 23.4533 102.049 24.8569 102.776C26.2864 103.478 27.3911 104.466 28.1708 105.739C28.9766 107.013 29.3795 108.521 29.3795 110.262H23.5313C23.5313 109.118 23.2064 108.248 22.5566 107.65C21.9328 107.052 21.0361 106.753 19.8665 106.753C18.6968 106.753 17.7871 107.052 17.1373 107.65C16.5135 108.248 16.2016 109.118 16.2016 110.262V122.348C16.2016 123.466 16.5135 124.337 17.1373 124.96C17.7871 125.558 18.6968 125.857 19.8665 125.857C21.0361 125.857 21.9328 125.558 22.5566 124.96C23.2064 124.337 23.5313 123.466 23.5313 122.348V119.892H19.3206V114.94H29.3795V122.348C29.3795 124.064 28.9766 125.571 28.1708 126.871C27.3911 128.144 26.2864 129.145 24.8569 129.873C23.4533 130.575 21.7899 130.925 19.8665 130.925Z" fill="#FBF1C7"/>
        </g>
        <g id="logo_secondary">
            <path d="M35.3415 115.536V103.126H38.2145L39.3535 107.036C39.4782 107.444 39.5688 107.801 39.6255 108.107C39.6935 108.413 39.7332 108.628 39.7445 108.753C39.7558 108.628 39.7898 108.413 39.8465 108.107C39.9145 107.801 40.0052 107.444 40.1185 107.036L41.2405 103.126H44.1135V115.536H41.7845V112.136C41.7845 111.512 41.7958 110.861 41.8185 110.181C41.8525 109.489 41.8922 108.804 41.9375 108.124C41.9828 107.444 42.0338 106.809 42.0905 106.22C42.1472 105.619 42.1982 105.098 42.2435 104.656L40.8155 110.266H38.6565L37.1605 104.656C37.2172 105.075 37.2738 105.579 37.3305 106.169C37.3872 106.747 37.4382 107.376 37.4835 108.056C37.5402 108.724 37.5855 109.41 37.6195 110.113C37.6535 110.815 37.6705 111.49 37.6705 112.136V115.536H35.3415Z" fill="#FABD2F"/>
            <path d="M45.2458 115.536L48.2889 103.126H51.5189L54.5959 115.536H51.9949L51.3999 112.731H48.4419L47.8469 115.536H45.2458ZM48.8669 110.691H50.9579L50.3629 107.699C50.2835 107.268 50.1985 106.843 50.1079 106.424C50.0285 105.993 49.9662 105.659 49.9209 105.421C49.8755 105.659 49.8132 105.987 49.7339 106.407C49.6659 106.826 49.5865 107.251 49.4958 107.682L48.8669 110.691Z" fill="#FABD2F"/>
            <path d="M35.6475 130.536V118.126H38.6225L41.8355 127.731C41.8015 127.311 41.7618 126.83 41.7165 126.286C41.6712 125.73 41.6315 125.181 41.5975 124.637C41.5748 124.081 41.5635 123.611 41.5635 123.226V118.126H43.8075V130.536H40.8325L37.6535 120.931C37.6875 121.293 37.7215 121.724 37.7555 122.223C37.7895 122.721 37.8178 123.226 37.8405 123.736C37.8745 124.246 37.8915 124.699 37.8915 125.096V130.536H35.6475Z" fill="#FABD2F"/>
            <path d="M49.9209 130.706C49.3995 130.706 48.9802 130.553 48.6629 130.247C48.3569 129.929 48.2038 129.51 48.2038 128.989C48.2038 128.456 48.3569 128.037 48.6629 127.731C48.9802 127.425 49.3995 127.272 49.9209 127.272C50.4535 127.272 50.8729 127.425 51.1789 127.731C51.4849 128.037 51.6379 128.456 51.6379 128.989C51.6379 129.51 51.4849 129.929 51.1789 130.247C50.8729 130.553 50.4535 130.706 49.9209 130.706Z" fill="#FABD2F"/>
        </g>
    </g>
</svg>
